<svg width="22" height="22" viewBox="0 0 22 22" fill="none" xmlns="http://www.w3.org/2000/svg">
<path d="M3.41384 4.82295L0 1.46542L1.48954 0L4.90232 3.35857H20.9472C21.1113 3.35855 21.2731 3.39628 21.4198 3.46872C21.5664 3.54117 21.6938 3.64633 21.7917 3.77582C21.8897 3.90531 21.9556 4.05553 21.984 4.2145C22.0125 4.37348 22.0028 4.5368 21.9557 4.69143L19.4293 12.9765C19.3643 13.1899 19.2311 13.3771 19.0494 13.5101C18.8677 13.6431 18.6473 13.7149 18.4208 13.7149H5.51919V15.7862H17.0987V17.8575H4.46651C4.18733 17.8575 3.91957 17.7483 3.72216 17.5541C3.52474 17.3599 3.41384 17.0965 3.41384 16.8218V4.82295ZM5.51919 5.42984V11.6436H17.6376L19.5324 5.42984H5.51919ZM4.99285 22C4.57407 22 4.17244 21.8363 3.87632 21.545C3.5802 21.2537 3.41384 20.8585 3.41384 20.4465C3.41384 20.0345 3.5802 19.6394 3.87632 19.3481C4.17244 19.0568 4.57407 18.8931 4.99285 18.8931C5.41163 18.8931 5.81326 19.0568 6.10939 19.3481C6.40551 19.6394 6.57187 20.0345 6.57187 20.4465C6.57187 20.8585 6.40551 21.2537 6.10939 21.545C5.81326 21.8363 5.41163 22 4.99285 22ZM17.625 22C17.2062 22 16.8046 21.8363 16.5085 21.545C16.2123 21.2537 16.046 20.8585 16.046 20.4465C16.046 20.0345 16.2123 19.6394 16.5085 19.3481C16.8046 19.0568 17.2062 18.8931 17.625 18.8931C18.0438 18.8931 18.4454 19.0568 18.7415 19.3481C19.0376 19.6394 19.204 20.0345 19.204 20.4465C19.204 20.8585 19.0376 21.2537 18.7415 21.545C18.4454 21.8363 18.0438 22 17.625 22Z" fill="white"/>
</svg>
