<svg width="18" height="16" viewBox="0 0 18 16" fill="none" xmlns="http://www.w3.org/2000/svg">
<path d="M0 5.77778V0.888889C0 0.653141 0.0948211 0.427048 0.263604 0.260349C0.432387 0.0936505 0.661305 0 0.9 0H17.1C17.3387 0 17.5676 0.0936505 17.7364 0.260349C17.9052 0.427048 18 0.653141 18 0.888889V5.77778C17.4033 5.77778 16.831 6.0119 16.409 6.42865C15.9871 6.8454 15.75 7.41063 15.75 8C15.75 8.58937 15.9871 9.1546 16.409 9.57135C16.831 9.9881 17.4033 10.2222 18 10.2222V15.1111C18 15.3469 17.9052 15.573 17.7364 15.7397C17.5676 15.9064 17.3387 16 17.1 16H0.9C0.661305 16 0.432387 15.9064 0.263604 15.7397C0.0948211 15.573 0 15.3469 0 15.1111V10.2222C0.596737 10.2222 1.16903 9.9881 1.59099 9.57135C2.01295 9.1546 2.25 8.58937 2.25 8C2.25 7.41063 2.01295 6.8454 1.59099 6.42865C1.16903 6.0119 0.596737 5.77778 0 5.77778ZM10.8 1.77778H1.8V4.416C2.47609 4.74693 3.04513 5.25782 3.44295 5.89107C3.84078 6.52433 4.05158 7.25475 4.05158 8C4.05158 8.74525 3.84078 9.47567 3.44295 10.1089C3.04513 10.7422 2.47609 11.2531 1.8 11.584V14.2222H10.8V1.77778ZM12.6 1.77778V14.2222H16.2V11.584C15.5239 11.2531 14.9549 10.7422 14.557 10.1089C14.1592 9.47567 13.9484 8.74525 13.9484 8C13.9484 7.25475 14.1592 6.52433 14.557 5.89107C14.9549 5.25782 15.5239 4.74693 16.2 4.416V1.77778H12.6Z" fill="#101010"/>
</svg>
