<svg width="18" height="22" viewBox="0 0 18 22" fill="none" xmlns="http://www.w3.org/2000/svg">
<path d="M8.97429 22L2.62847 15.5563C1.37341 14.2819 0.5187 12.6581 0.172434 10.8905C-0.173831 9.12277 0.00389568 7.29051 0.683141 5.62539C1.36239 3.96027 2.51264 2.53707 3.98845 1.53576C5.46426 0.534448 7.19935 0 8.97429 0C10.7492 0 12.4843 0.534448 13.9601 1.53576C15.4359 2.53707 16.5862 3.96027 17.2654 5.62539C17.9447 7.29051 18.1224 9.12277 17.7761 10.8905C17.4299 12.6581 16.5752 14.2819 15.3201 15.5563L8.97429 22ZM13.9101 14.1246C14.8862 13.1333 15.551 11.8704 15.8202 10.4956C16.0895 9.12075 15.9512 7.69569 15.4229 6.40064C14.8946 5.10558 13.9999 3.99868 12.8521 3.21991C11.7043 2.44114 10.3548 2.02548 8.97429 2.02548C7.5938 2.02548 6.24432 2.44114 5.09648 3.21991C3.94864 3.99868 3.054 5.10558 2.52568 6.40064C1.99736 7.69569 1.85909 9.12075 2.12836 10.4956C2.39762 11.8704 3.06233 13.1333 4.03843 14.1246L8.97429 19.1366L13.9101 14.1246ZM8.97429 11.1377C8.44537 11.1377 7.93812 10.9243 7.56411 10.5445C7.19011 10.1648 6.98 9.64969 6.98 9.11262C6.98 8.57554 7.19011 8.06047 7.56411 7.6807C7.93812 7.30093 8.44537 7.08757 8.97429 7.08757C9.5032 7.08757 10.0105 7.30093 10.3845 7.6807C10.7585 8.06047 10.9686 8.57554 10.9686 9.11262C10.9686 9.64969 10.7585 10.1648 10.3845 10.5445C10.0105 10.9243 9.5032 11.1377 8.97429 11.1377Z" fill="#101010"/>
</svg>
